<svg xmlns="http://www.w3.org/2000/svg" width="512" height="512" viewBox="0 0 512 512"><rect width="512" height="512" fill="#111110" rx="128"/><svg width="368" height="368" x="72" y="72" viewBox="115 118 794 794"><path fill="#FE6B3D" d="M755.38 532.817C757.664 533.616 858.169 632.732 867.108 641.958C884.058 659.109 893.239 682.456 892.514 706.559C892.148 723.412 887.131 738.384 878.065 752.577C871.559 762.762 862.993 770.537 854.433 779.013L827.427 805.566C805.807 827.001 783.486 850.279 761.527 871.123C745.144 886.396 723.363 894.532 700.98 893.741C658.113 892.592 634.772 860.391 607.288 832.599L550.771 775.427C539.799 764.428 528.653 753.506 517.792 742.399C515.547 740.103 515.292 736.887 512.998 734.239C505.022 725.028 496.475 716.105 488.133 707.231L444.366 659.623C438.614 653.371 430.401 645.435 425.42 639.048C431.685 632.023 439.643 625.109 446.26 618.342C455.002 609.403 464.767 600.085 475.966 594.455C499.559 582.596 528.802 583.514 550.683 598.759C560.309 605.337 565.98 612.075 574.083 620.246C584.09 630.269 594.001 640.386 603.817 650.596L654.21 702.018C670.774 719.163 687.88 737.571 704.889 754.13C710.985 748.714 717.826 741.137 723.7 735.174L755.689 703.062L695.949 648.095C685.761 638.687 671.786 625.024 661.38 616.783C665.613 611.688 683.97 596.43 690.076 590.899L729.309 555.692C737.863 548.025 746.378 539.915 755.38 532.817Z"/><path fill="#FE6B3D" d="M314.835 133.178C337.977 130.145 364.999 140.251 381.604 156.225C393.494 167.664 404.97 179.755 416.566 191.524L475.621 251.544C485.525 261.625 495.865 271.706 505.492 282.009C510.339 287.195 514.011 294.125 519.483 300.007L569.931 353.795L587.864 372.634C591.98 376.884 596.41 380.967 600.195 385.48C589.858 395.439 579.473 405.733 569.405 415.993C544.489 441.384 506.455 446.579 476.036 427.868C466.097 421.754 456.904 411.265 448.646 402.827L421.972 375.415C388.153 340.91 354.577 306.168 321.246 271.192C314.337 277.428 304.804 287.787 298.078 294.675C290.207 302.427 277.649 314.208 270.803 322.278C301.294 350.686 332.069 378.095 362.413 406.792C353.789 415.772 342.339 425.367 333.022 433.966L268.572 493.178C260.966 486.518 252.016 476.947 244.635 469.667L191.066 415.911L167.768 392.58C160.92 385.734 154.024 379.25 148.371 371.245C127.163 341.21 128.51 297.527 151.487 268.908C158.692 259.935 167.968 251.25 176.234 243.046L216.066 203.674L250.908 168.809C254.796 164.934 258.684 161.058 262.598 157.209C277.038 143.009 294.813 135.307 314.835 133.178Z"/><path fill="#FE6B3D" d="M384.731 427.918C392.471 434.312 399.602 443.651 406.899 450.089C425.11 466.153 437.283 481.732 438.551 507.206C439.369 523.648 435.407 539.653 425.705 553.449C416.488 566.555 401.927 579.158 390.114 590.506C363.334 615.906 336.398 641.141 309.306 666.208L284.662 689.219C280.131 693.441 274.314 698.408 270.278 702.869L269.765 703.442L321.453 755.211C325.719 751.049 332.215 743.014 336.67 738.185L383.718 686.444C388.788 680.834 400.657 666.902 405.902 662.878C408.732 665.377 415.161 672.901 418.121 676.095L443.241 702.927C454.464 714.94 465.597 727.036 476.639 739.215C481.598 744.649 488.839 752.062 493.189 757.679C486.108 765.724 474.99 775.765 466.979 783.582L428.828 821.499L396.157 854.237C389.994 860.416 382.622 868.348 376.138 873.84C358.787 888.387 336.368 895.448 313.812 893.471C280.699 890.439 266.677 873.482 244.867 851.873C231.401 838.548 218.008 825.149 204.689 811.677L175.037 781.867C167.262 774.112 158.031 765.279 151.134 756.874C137.937 740.792 131.392 715.884 133.405 695.349C134.724 681.902 140.697 664.644 148.742 653.788C155.148 645.143 164.989 636.088 172.781 628.444L207.992 593.813C233.988 567.809 260.223 542.046 286.696 516.528C299.352 504.515 313.062 492.469 325.978 480.563L358.918 450.734C367.259 443.206 376.072 434.986 384.731 427.918Z"/><path fill="#FE6B3D" d="M697.398 133.188C702.508 132.679 708.97 132.853 714.051 133.42C727.425 135.027 740.213 139.838 751.33 147.445C760.392 153.616 768.154 161.97 775.93 169.711C784.362 178.152 792.847 186.539 801.384 194.873C818.024 210.828 834.448 227.006 850.651 243.404C856.402 249.179 868.736 260.949 873.477 266.964C888.101 285.302 894.7 308.767 891.779 332.039C889.895 346.81 884.373 360.882 875.708 372.992C868.058 383.888 855.055 394.559 845.481 404.267C833.692 416.222 821.834 428.091 809.9 439.899L759.581 490.292C753.628 496.145 747.649 502.155 741.659 507.969C739.947 509.632 734.871 510.851 732.53 512.821C723.121 520.739 713.941 529.058 704.828 537.31L662.968 575.189C655.753 581.674 647.258 589.656 639.819 595.557C634.608 590.969 627.53 583.204 622.66 578.165C610.949 566.046 598.822 555.932 592.488 539.836C584.841 520.401 585.13 501.425 593.012 482.366C600.499 465.756 607.547 459.943 620.357 447.652L644.785 424.323L716.902 357.412C729.326 346.017 742.44 334.471 754.535 322.824C737.286 306.383 720.02 287.391 702.557 270.367C674.122 300.027 647.554 332.451 619.108 362.234C612.651 356.269 601.958 343.509 595.059 336.237C573.66 313.932 552.552 291.35 531.74 268.497C534.291 265.456 539.133 261.057 542.055 258.12C549.495 250.643 557.327 243.409 564.775 235.933L620.543 180.314C646.293 154.721 658.2 137.296 697.398 133.188Z"/></svg></svg>