<?xml version="1.0" encoding="UTF-8"?>
<svg width="69px" height="68px" viewBox="0 0 69 68" version="1.1"
  xmlns="http://www.w3.org/2000/svg"
  xmlns:xlink="http://www.w3.org/1999/xlink">
  <!-- Generator: Sketch 61.2 (89653) - https://sketch.com -->
  <title>icon_abstract</title>
  <desc>Created with Sketch.</desc>
  <g id="Funnel-white-redesign---DEV" stroke="none" stroke-width="1" fill="none" fill-rule="evenodd">
    <g id="Current-vs.-new" transform="translate(-8331.000000, -1731.000000)" fill="#4283f5" fill-rule="nonzero">
      <g id="icon_abstract" transform="translate(8331.000000, 1731.000000)">
        <polygon id="Path" opacity="0.4" points="57.0223827 8.20969722 34.5115997 0 12 8.20969722 69 29"></polygon>

      </g>
    </g>
  </g>
  <g id="Funnel-white-redesign---DEV" stroke="none" stroke-width="1" fill="none" fill-rule="evenodd">
    <g id="Current-vs.-new" transform="translate(-8331.000000, -1731.000000)" fill="#4283f5" fill-rule="nonzero">
      <g id="icon_abstract" transform="translate(8331.000000, 1731.000000)">
        <polygon id="Path" opacity="0.1" points="45.7157657 68 63.8830585 52.598492 68 29 22 68"></polygon>
      </g>
    </g>
  </g>
  <g id="Funnel-white-redesign---DEV" stroke="none" stroke-width="1" fill="none" fill-rule="evenodd">
    <g id="Current-vs.-new" transform="translate(-8331.000000, -1731.000000)" fill="#537583" fill-rule="nonzero">
      <g id="icon_abstract" transform="translate(8331.000000, 1731.000000)">
        <polygon id="Path" opacity="0.6" points="0 28.4230692 4.02793809 51.8142296 22 67 11.7303075 8"></polygon>
      </g>
    </g>
  </g>
  <g id="Funnel-white-redesign---DEV" stroke="none" stroke-width="1" fill="none" fill-rule="evenodd">
    <g id="Current-vs.-new" transform="translate(-8331.000000, -1731.000000)" fill="#537583" fill-rule="nonzero">
      <g id="icon_abstract" transform="translate(8331.000000, 1731.000000)">
        <polygon id="Path" opacity="0.3" points="68 28.6465614 56.1920012 8.1118642 34 0 63.9000983 52"></polygon>
      </g>
    </g>
  </g>
  <g id="Funnel-white-redesign---DEV" stroke="none" stroke-width="1" fill="none" fill-rule="evenodd">
    <g id="Current-vs.-new" transform="translate(-8331.000000, -1731.000000)" fill="#6a87BB" fill-rule="nonzero">
      <g id="icon_abstract" transform="translate(8331.000000, 1731.000000)">
        <polygon id="Path" opacity="0.6" points="22.2568672 67 45.8934017 67 64 52.0911295 4 52"></polygon>
      </g>
    </g>
  </g>
  <g id="Funnel-white-redesign---DEV" stroke="none" stroke-width="1" fill="none" fill-rule="evenodd">
    <g id="Current-vs.-new" transform="translate(-8331.000000, -1731.000000)" fill="#aaaaaa" fill-rule="nonzero">
      <g id="icon_abstract" transform="translate(8331.000000, 1731.000000)">
        <polygon id="Path" opacity="0.6" points="11.8271704 8.07773079 0 28.6138476 4.05345659 52 34 0"></polygon>
      </g>
    </g>
  </g>
</svg>